<svg id="Capa_1" enable-background="new 0 0 512 512" height="512" viewBox="0 0 512 512" width="512" xmlns="http://www.w3.org/2000/svg"><g><path d="m262.844 357.581h117.526v33.738h-117.526z" fill="#365e7d"/><path d="m325.997 391.319h54.373v-33.738h-51.51z" fill="#2b4d66"/><path d="m262.844 504.5h-238.114v-272.536l238.114 92.241z" fill="#e7ecf6"/><path d="m24.73 231.964v24.429l197.573 76.536c11.216 4.345 18.608 15.136 18.608 27.164v144.407h21.933v-180.295z" fill="#d8e2f1"/><path d="m222.84 345.725v52.17h-158.11v-107.93l53.59 18.9 50.93 17.96z" fill="#80b4fb"/><path d="m169.25 326.825-50.93-17.96-53.59-18.9v17.156l31.739 11.194 50.93 17.96 43.408 15.309c6.101 2.152 10.182 7.918 10.182 14.388v31.923h21.851v-52.17z" fill="#61a2f9"/><path d="m436.19 431.261-16.49 20h-59.54l-16.49-20 11-129.62 5.49-64.81.958-11.286 10.785-19.194c.152-2.449 1.651-4.33 3.449-4.33h29.157c1.798 0 3.297 1.882 3.449 4.33l10.858 20.051 6.385 75.239 5.49 64.81z" fill="#c3d5ef"/><path d="m430.69 366.451-5.49-64.81-10.633-125.29c-.208-2.449-2.256-4.33-4.713-4.33h-18.26c2.457 0 4.505 1.882 4.713 4.33l10.633 125.29 5.49 64.81 5.5 84.81 18.26-20z" fill="#b7c8ea"/><path d="m419.7 236.831h-59.54l5.133-60.48c.208-2.449 2.256-4.33 4.713-4.33h39.849c2.457 0 4.505 1.882 4.713 4.33z" fill="#eab14d"/><path d="m396.308 176.351 5.133 60.48h18.26l-5.133-60.48c-.208-2.449-2.256-4.33-4.713-4.33h-18.26c2.457 0 4.505 1.881 4.713 4.33z" fill="#e49542"/><path d="m430.69 366.451h-81.52l5.5-64.81h70.53z" fill="#eab14d"/><path d="m430.69 366.451-5.49-64.81h-18.26l5.49 64.81z" fill="#e49542"/><path d="m93.848 453.83h99.879v50.67h-99.879z" fill="#80b4fb"/><path d="m172.588 453.831h21.138v50.67h-21.138z" fill="#61a2f9"/><path d="m487.27 504.5h-224.426v-73.238h210.063c7.933 0 14.363 6.431 14.363 14.364z" fill="#e7ecf6"/><path d="m472.907 431.262h-21.874c7.933 0 14.363 6.431 14.363 14.364v58.874h21.874v-58.874c0-7.933-6.43-14.364-14.363-14.364z" fill="#d8e2f1"/><g><path d="m390.889 59.449h25.974c10.934 0 19.828 8.895 19.828 19.828v10.538c0 10.934-8.895 19.829-19.828 19.829-14.574 0-26.432 11.857-26.432 26.432v10.961c0 4.142 3.357 7.5 7.5 7.5s7.5-3.358 7.5-7.5v-10.961c0-6.303 5.128-11.432 11.432-11.432 19.204 0 34.828-15.624 34.828-34.829v-10.538c0-19.204-15.624-34.828-34.828-34.828h-25.974c-6.462 0-11.719-5.257-11.719-11.718v-25.231c0-4.142-3.357-7.5-7.5-7.5s-7.5 3.358-7.5 7.5v25.23c0 14.733 11.986 26.719 26.719 26.719z"/><path d="m352.466 118.361c5.101 0 9.251 4.15 9.251 9.251v12.201c0 4.142 3.357 7.5 7.5 7.5s7.5-3.358 7.5-7.5v-12.201c0-13.372-10.879-24.251-24.251-24.251-5.101 0-9.25-4.15-9.25-9.25v-16.264c0-4.142-3.357-7.5-7.5-7.5s-7.5 3.358-7.5 7.5v16.264c0 13.371 10.879 24.25 24.25 24.25z"/><path d="m407.931 29.328c4.143 0 7.5-3.358 7.5-7.5v-14.261c0-4.142-3.357-7.5-7.5-7.5s-7.5 3.358-7.5 7.5v14.261c0 4.142 3.357 7.5 7.5 7.5z"/><path d="m304.798 452.302c-4.143 0-7.5 3.357-7.5 7.5v7.079c0 4.143 3.357 7.5 7.5 7.5s7.5-3.357 7.5-7.5v-7.079c0-4.142-3.358-7.5-7.5-7.5z"/><path d="m351.638 452.302c-4.143 0-7.5 3.357-7.5 7.5v7.079c0 4.143 3.357 7.5 7.5 7.5s7.5-3.357 7.5-7.5v-7.079c0-4.142-3.358-7.5-7.5-7.5z"/><path d="m398.478 452.302c-4.143 0-7.5 3.357-7.5 7.5v7.079c0 4.143 3.357 7.5 7.5 7.5s7.5-3.357 7.5-7.5v-7.079c0-4.142-3.358-7.5-7.5-7.5z"/><path d="m445.316 452.302c-4.143 0-7.5 3.357-7.5 7.5v7.079c0 4.143 3.357 7.5 7.5 7.5s7.5-3.357 7.5-7.5v-7.079c0-4.142-3.357-7.5-7.5-7.5z"/><path d="m504.5 497h-9.729v-51.375c0-12.056-9.808-21.863-21.863-21.863h-29.826c-.011-.134-21.005-247.635-21.04-248.043-.531-6.279-5.884-11.198-12.187-11.198h-39.849c-6.405 0-11.644 4.813-12.187 11.196-24.402 287.808.486-5.73-14.788 174.365h-72.688v-25.876c0-3.097-1.903-5.875-4.79-6.993l-14.105-5.465c-3.862-1.499-8.207.421-9.703 4.283s.422 8.207 4.284 9.703l9.314 3.609v167.657h-54.117v-43.17c0-4.143-3.358-7.5-7.5-7.5h-99.878c-4.142 0-7.5 3.357-7.5 7.5v43.17h-54.118v-254.087l183.812 71.205c3.863 1.5 8.207-.422 9.703-4.284s-.422-8.206-4.285-9.702l-140.696-54.504v-53.746c0-4.142-3.358-7.5-7.5-7.5s-7.5 3.358-7.5 7.5v47.935l-38.324-14.846c-2.305-.894-4.907-.593-6.948.806-2.041 1.398-3.261 3.713-3.261 6.188v265.035h-9.731c-4.142 0-7.5 3.357-7.5 7.5s3.358 7.5 7.5 7.5h497c4.143 0 7.5-3.357 7.5-7.5s-3.357-7.5-7.5-7.5zm-234.156-73.238v-24.943h68.552l-2.117 24.943zm157.683-.001h-76.194c1.116-13.158 3.514-41.424 4.225-49.811h18.878c4.143 0 7.5-3.357 7.5-7.5s-3.357-7.5-7.5-7.5h-17.606c.384-4.531 3.837-45.231 4.225-49.81h56.749l4.225 49.81h-17.606c-4.143 0-7.5 3.357-7.5 7.5s3.357 7.5 7.5 7.5h18.878zm-10.995-129.62h-54.204l4.225-49.81h45.754zm-44.481-114.62h34.759l4.225 49.81h-43.209zm-30.792 185.561-1.59 18.737h-69.825v-18.737zm-240.411 131.918v-35.67h84.879v35.67zm168.996 0v-58.238h202.563c3.784 0 6.863 3.079 6.863 6.863v51.375z"/><path d="m67.225 282.892c-2.295-.81-4.841-.454-6.827.951-1.987 1.406-3.167 3.688-3.167 6.122v42.939c0 4.143 3.358 7.5 7.5 7.5s7.5-3.357 7.5-7.5v-32.342l38.59 13.609v76.223h-38.591v-27.503c0-4.143-3.358-7.5-7.5-7.5s-7.5 3.357-7.5 7.5v35.003c0 4.143 3.358 7.5 7.5 7.5h158.11c4.142 0 7.5-3.357 7.5-7.5v-52.17c0-3.181-2.006-6.016-5.005-7.073zm58.595 36.57 35.93 12.671v58.262h-35.93zm89.52 70.933h-38.59v-52.972l38.59 13.609z"/></g></g></svg>